<svg width="26" height="23" viewBox="0 0 26 23" fill="none" xmlns="http://www.w3.org/2000/svg">
<path d="M5.41667 20.125C4.82083 20.125 4.30625 19.9413 3.87292 19.574C3.45764 19.1906 3.25 18.7354 3.25 18.2083V4.79167C3.25 4.26458 3.45764 3.81736 3.87292 3.45C4.30625 3.06667 4.82083 2.875 5.41667 2.875H20.5833C21.1792 2.875 21.6847 3.06667 22.1 3.45C22.5333 3.81736 22.75 4.26458 22.75 4.79167V18.2083C22.75 18.7354 22.5333 19.1906 22.1 19.574C21.6847 19.9413 21.1792 20.125 20.5833 20.125H5.41667ZM5.41667 18.2083H20.5833V4.79167H5.41667V18.2083ZM6.5 16.2917H19.5L15.4375 11.5L12.1875 15.3333L9.75 12.4583L6.5 16.2917ZM5.41667 18.2083V4.79167V18.2083Z" fill="#1D1B20"/>
</svg>
