<?xml version="1.0" encoding="utf-8"?><!-- Uploaded to: SVG Repo, www.svgrepo.com, Generator: SVG Repo Mixer Tools -->
<svg version="1.1" id="designs" xmlns="http://www.w3.org/2000/svg" xmlns:xlink="http://www.w3.org/1999/xlink" 
	 width="800px" height="800px" viewBox="0 0 32 32" xml:space="preserve">
<style type="text/css">
	.sketchy_een{fill:#111918;}
</style>
<path class="sketchy_een" d="M24.031,11.578c0.244-0.352,0.467-0.717,0.692-1.083c0.207-0.342,0.41-0.686,0.592-1.044
	c0.356-0.7,0.663-1.442,0.872-2.201c0.057-0.209,0.125-0.43,0.117-0.649c-0.012-0.287-0.172-0.635-0.448-0.768
	c-0.217-0.104-0.362-0.131-0.6-0.162c-0.112-0.014-0.224-0.02-0.336-0.02c-0.314,0-0.627,0.046-0.937,0.094
	c-0.727,0.111-1.437,0.301-2.124,0.561c-0.389,0.147-0.741,0.346-1.102,0.547c-0.34,0.188-0.682,0.371-1.005,0.59
	c-0.352,0.238-0.685,0.5-1.008,0.775c-0.105-0.583-0.232-1.162-0.415-1.727c-0.25-0.774-0.512-1.546-0.766-2.318
	c-0.125-0.377-0.254-0.752-0.399-1.122c-0.035-0.092-0.07-0.184-0.106-0.276c-0.035-0.086-0.072-0.182-0.109-0.262
	c-0.045-0.094-0.092-0.139-0.166-0.234C16.641,2.098,16.375,2,16.146,2c-0.346,0-0.612,0.201-0.801,0.473
	C15.244,2.62,15.161,2.78,15.07,2.932c-0.1,0.172-0.205,0.342-0.309,0.51c-0.199,0.321-0.364,0.657-0.536,0.993
	c-0.18,0.354-0.358,0.707-0.53,1.065c-0.195,0.412-0.344,0.835-0.473,1.27c-0.117,0.385-0.215,0.774-0.287,1.171
	c-0.03,0.159-0.044,0.322-0.059,0.484c-0.061-0.067-0.116-0.139-0.178-0.205c-0.303-0.323-0.649-0.598-1.024-0.833
	c-0.326-0.201-0.682-0.367-1.026-0.536C9.872,6.473,9.04,6.244,8.193,6.082C7.818,6.01,7.437,5.963,7.058,5.904
	C6.924,5.883,6.789,5.862,6.654,5.862c-0.086,0-0.172,0.008-0.257,0.031C6.155,5.955,5.914,6.115,5.805,6.348
	C5.674,6.622,5.674,6.85,5.735,7.139C5.75,7.216,5.781,7.294,5.811,7.368c0.221,0.586,0.444,1.175,0.688,1.753
	C6.616,9.399,6.741,9.672,6.88,9.938c0.137,0.258,0.305,0.494,0.473,0.733c0.385,0.547,0.772,1.096,1.225,1.589
	c0.328,0.358,0.707,0.655,1.098,0.944c0.05,0.037,0.101,0.074,0.151,0.112c-0.837,0.019-1.672,0.057-2.503,0.164
	c-0.244,0.031-0.442,0.076-0.622,0.258c-0.015,0.015-0.021,0.037-0.035,0.053c-0.358,0.129-0.611,0.468-0.623,0.866
	c-0.027,0.868-0.066,1.743-0.033,2.611c0.012,0.281,0.037,0.563,0.051,0.846c0.016,0.348,0.01,0.696,0.031,1.044
	c0.011,0.189,0.084,0.358,0.185,0.503c0.013,0.032,0.039,0.056,0.056,0.086c0.01,0.011,0.014,0.026,0.024,0.036
	c0.15,0.235,0.399,0.405,0.69,0.398c0.204-0.006,0.409-0.014,0.613-0.022c0.048,0.896,0.122,1.785,0.268,2.671
	c0.116,0.693,0.288,1.373,0.439,2.057c-0.087-0.001-0.175-0.003-0.262-0.004c-0.275-0.001-0.511,0.146-0.665,0.355
	c-0.053,0.005-0.106-0.003-0.158,0.011c-0.223,0.061-0.414,0.209-0.532,0.408c-0.131,0.223-0.129,0.438-0.09,0.684
	c0.072,0.449,0.131,0.901,0.217,1.347c0.084,0.448,0.293,0.833,0.571,1.186c0.225,0.285,0.534,0.549,0.846,0.725
	c0.188,0.106,0.389,0.188,0.59,0.258c0.252,0.086,0.528,0.098,0.792,0.115c0.797,0.059,1.605,0.004,2.404-0.01
	c0.805-0.014,1.61-0.021,2.416-0.027c0.815-0.006,1.632-0.008,2.449-0.002c0.371,0.002,0.743,0.002,1.114-0.014
	c0.375-0.014,0.747-0.043,1.12-0.064c0.397-0.023,0.792-0.053,1.188-0.067c0.174-0.006,0.35-0.004,0.524-0.004
	c0.203,0.002,0.409,0.004,0.614-0.008c0.395-0.021,0.801-0.055,1.169-0.203c0.406-0.164,0.788-0.377,1.114-0.676
	c0.19-0.174,0.346-0.401,0.485-0.62c0.139-0.213,0.252-0.459,0.326-0.702c0.156-0.514,0.149-1.067,0.16-1.599
	c0.003-0.136-0.04-0.26-0.102-0.374c0.001-0.017,0.01-0.03,0.01-0.047c0-0.458-0.386-0.866-0.851-0.866c-0.005,0-0.011,0-0.016,0
	c-0.275,0.006-0.551,0.01-0.826,0.015c0.087-0.32,0.184-0.638,0.262-0.96c0.092-0.367,0.158-0.741,0.223-1.114
	c0.142-0.83,0.283-1.659,0.431-2.489c0.21,0.026,0.421,0.047,0.631,0.034c0.157-0.01,0.297-0.064,0.426-0.136
	c0.372-0.101,0.667-0.43,0.658-0.831c-0.027-1.419,0.023-2.838,0-4.257c0-0.014-0.008-0.026-0.009-0.041
	c0.098-0.143,0.166-0.306,0.166-0.481c0-0.229-0.092-0.451-0.254-0.614c-0.174-0.174-0.375-0.234-0.614-0.254
	c-0.42-0.037-0.84-0.088-1.263-0.1c-0.379-0.012-0.756-0.021-1.135-0.031c-0.07-0.002-0.139-0.001-0.209-0.003
	c0.312-0.246,0.613-0.497,0.894-0.783C23.501,12.321,23.769,11.952,24.031,11.578z M14.485,8.334
	c0.116-0.613,0.272-1.228,0.493-1.812c0.257-0.544,0.557-1.064,0.826-1.602c0.063-0.125,0.133-0.245,0.205-0.364
	c0.189,0.548,0.362,1.102,0.544,1.652c0.285,0.865,0.543,1.758,0.675,2.662c0.082,0.741,0.098,1.502,0.015,2.243
	c-0.111,0.759-0.272,1.507-0.566,2.216c-0.001,0.003,0,0.007-0.001,0.01c-0.469-0.008-0.938-0.017-1.407-0.028
	c-0.16-0.455-0.313-0.912-0.458-1.37c-0.123-0.391-0.236-0.778-0.306-1.181C14.417,9.957,14.397,9.14,14.485,8.334z M9.332,10.571
	C9.052,10.198,8.775,9.82,8.516,9.43C8.393,9.242,8.293,9.035,8.193,8.834c-0.088-0.179-0.172-0.36-0.253-0.543
	C7.855,8.081,7.772,7.87,7.689,7.659c0.657,0.12,1.305,0.276,1.939,0.509c0.539,0.235,1.074,0.499,1.552,0.842
	c0.54,0.451,0.991,1.021,1.427,1.573c0.108,0.144,0.211,0.29,0.3,0.448c0.022,0.177,0.047,0.355,0.086,0.529
	c0.132,0.584,0.305,1.158,0.49,1.729c-0.092,0-0.184-0.003-0.275-0.003c-0.191,0-0.383,0.003-0.574,0.004
	c-0.048-0.235-0.18-0.451-0.403-0.559c-0.291-0.141-0.584-0.277-0.864-0.44c-0.207-0.119-0.403-0.256-0.598-0.395
	c-0.205-0.145-0.411-0.288-0.611-0.438C9.847,11.195,9.583,10.888,9.332,10.571z M23.103,26.433
	c-0.005,0.159-0.002,0.318-0.017,0.476c-0.02,0.102-0.044,0.202-0.078,0.301c-0.063,0.131-0.134,0.257-0.215,0.377
	c-0.044,0.051-0.089,0.099-0.138,0.144c-0.139,0.091-0.289,0.168-0.44,0.238c-0.147,0.053-0.297,0.091-0.451,0.12
	c-0.328,0.034-0.659,0.034-0.988,0.037c-0.375,0.006-0.749,0.025-1.124,0.055c-0.772,0.062-1.544,0.119-2.318,0.151
	c-0.809,0.031-1.622,0.01-2.431,0.006c-0.774-0.002-1.548,0.002-2.322,0.012c-0.964,0.011-1.938,0.041-2.898-0.07
	c-0.101-0.019-0.197-0.042-0.293-0.075c-0.113-0.057-0.221-0.12-0.325-0.191c-0.105-0.091-0.204-0.187-0.296-0.292
	c-0.041-0.064-0.08-0.13-0.115-0.198c-0.054-0.159-0.087-0.321-0.113-0.487c-0.021-0.161-0.045-0.322-0.067-0.483
	c1.589-0.014,3.177-0.073,4.768-0.082c0.242,0,0.485,0,0.725,0c0.606,0.002,1.212,0.004,1.818-0.021
	c0.794-0.031,1.587-0.062,2.381-0.084c0.946-0.025,1.9-0.031,2.848,0.004c0.45,0.016,0.901,0.031,1.352,0.045
	C22.61,26.421,22.857,26.429,23.103,26.433z M23.152,15.198c0.218,0.004,0.437,0.028,0.656,0.038
	c0.019,0.65,0.044,1.299,0.051,1.949c0.003,0.403,0.001,0.807-0.002,1.21c-0.594-0.023-1.189-0.029-1.786-0.026
	c-0.465,0.002-0.932-0.02-1.399-0.02c-0.159-0.001-0.318-0.001-0.477-0.001c-0.384,0-0.768,0.001-1.153,0.003
	c-0.446,0.004-0.819,0.371-0.819,0.819c0,0.442,0.373,0.823,0.819,0.817c0.534-0.006,1.065-0.016,1.599-0.02
	c0.479-0.004,0.954,0.035,1.431,0.066c0.036,0.002,0.073,0.003,0.109,0.005c-0.111,0.703-0.214,1.407-0.346,2.106
	c-0.068,0.367-0.145,0.733-0.225,1.098c-0.08,0.358-0.186,0.709-0.262,1.065c-0.032,0.147-0.018,0.29,0.016,0.427
	c-0.348,0.006-0.696,0.013-1.044,0.019c0.02-0.044,0.052-0.081,0.063-0.13c0.094-0.428,0.209-0.85,0.303-1.276
	c0.135-0.625,0.231-1.251,0.317-1.884c0.027-0.205-0.106-0.449-0.242-0.586c-0.156-0.156-0.367-0.244-0.588-0.244
	c-0.219,0-0.43,0.088-0.586,0.244c-0.17,0.17-0.215,0.356-0.242,0.586c-0.026,0.209-0.05,0.417-0.076,0.626
	c-0.115,0.708-0.239,1.418-0.462,2.099c-0.066,0.205-0.028,0.418,0.071,0.598c-1.499,0.039-2.997,0.128-4.5,0.123
	c-0.983-0.004-1.966-0.008-2.949,0.006c-0.485,0.007-0.969,0-1.453-0.007c-0.001-0.061,0.006-0.122-0.008-0.183
	c-0.102-0.428-0.184-0.86-0.281-1.29c-0.107-0.461-0.198-0.936-0.267-1.407c-0.081-0.639-0.096-1.287-0.121-1.929
	c0.687-0.012,1.373-0.062,2.062-0.045c0.358,0.008,0.715,0.002,1.073,0.008c0.311,0.004,0.625,0.026,0.936,0.035
	c0.678,0.023,1.354-0.033,2.033-0.041c0.465-0.004,0.854-0.385,0.854-0.854c0-0.442-0.373-0.856-0.826-0.856
	c-0.009,0-0.019,0-0.028,0c-0.326,0.014-0.655,0.043-0.981,0.061c-0.34,0.018-0.678,0.014-1.02,0.014
	c-0.67,0.002-1.341-0.002-2.011-0.008c-0.317-0.002-0.635,0.027-0.952,0.045c-0.373,0.021-0.747,0.033-1.12,0.031
	c-0.485-0.004-0.97,0.005-1.455,0.011c0.001-0.129-0.001-0.257-0.003-0.385c-0.002-0.283-0.029-0.563-0.037-0.846
	c-0.02-0.695,0.02-1.395,0.054-2.092c0.749-0.09,1.496-0.162,2.25-0.197c0.881-0.043,1.767-0.041,2.648-0.045
	c1.722-0.008,3.444,0.049,5.166,0.074c0.575,0.008,1.149,0.049,1.722,0.084c0.297,0.02,0.596,0.047,0.897,0.051
	c0.152,0.004,0.305,0.004,0.457,0.002c0.152,0,0.305,0,0.457,0.002C22.034,15.155,22.593,15.186,23.152,15.198z M21.406,12.119
	c-0.328,0.24-0.662,0.469-1.006,0.687c-0.166,0.104-0.338,0.207-0.518,0.285c-0.202,0.09-0.402,0.18-0.594,0.289
	c-0.152-0.006-0.304-0.008-0.455-0.013c-0.159-0.005-0.317-0.004-0.474-0.004c0.202-0.621,0.364-1.248,0.462-1.899
	c0.06-0.404,0.085-0.803,0.09-1.209c0.462-0.456,0.927-0.904,1.43-1.318c0.553-0.406,1.173-0.731,1.797-1.015
	c0.391-0.15,0.784-0.271,1.196-0.355c0.225-0.045,0.446-0.105,0.67-0.147c0.168-0.031,0.336-0.056,0.504-0.081
	c-0.079,0.241-0.172,0.478-0.266,0.711c-0.246,0.549-0.535,1.072-0.849,1.586c-0.321,0.524-0.655,1.037-1.019,1.531
	C22.083,11.515,21.755,11.83,21.406,12.119z"/>
</svg>