<svg width="47" height="47" viewBox="0 0 47 47" fill="none" xmlns="http://www.w3.org/2000/svg">
<path d="M13.6043 23.6698C13.6043 26.3126 14.6541 28.8471 16.5229 30.7158C18.3916 32.5845 20.9261 33.6344 23.5689 33.6344C26.2116 33.6344 28.7461 32.5845 30.6149 30.7158C32.4836 28.8471 33.5334 26.3126 33.5334 23.6698C33.5334 21.0271 32.4836 18.4925 30.6149 16.6238C28.7461 14.7551 26.2116 13.7053 23.5689 13.7053C20.9261 13.7053 18.3916 14.7551 16.5229 16.6238C14.6541 18.4925 13.6043 21.0271 13.6043 23.6698Z" fill="#FFE600"/>
<path d="M23.5688 33.6344C25.7949 33.6344 27.8512 32.9046 29.5127 31.6699C21.3336 31.0916 15.9818 26.5752 14.178 20.3376C13.8062 21.3795 13.6043 22.4994 13.6043 23.6698C13.5997 29.1731 18.061 33.6344 23.5688 33.6344Z" fill="#CBC30B"/>
<path d="M23.4954 34.4376C17.4368 34.4376 12.5119 29.5081 12.5119 23.4541C12.5119 17.4001 17.4414 12.4706 23.4954 12.4706C24.8402 12.4706 26.1529 12.7093 27.4014 13.1866C27.9292 13.3886 28.1908 13.9761 27.9934 14.5039C27.7915 15.0317 27.204 15.2934 26.6762 15.096C25.6618 14.7104 24.5924 14.5131 23.4954 14.5131C18.5613 14.5085 14.5498 18.52 14.5498 23.4541C14.5498 28.3882 18.5613 32.3997 23.4954 32.3997C28.4295 32.3997 32.441 28.3882 32.441 23.4541C32.441 22.9263 32.3951 22.3938 32.3033 21.8798C32.2069 21.3244 32.5741 20.7966 33.1295 20.6956C33.6849 20.5992 34.2127 20.9664 34.3137 21.5218C34.4238 22.1552 34.4835 22.8069 34.4835 23.4541C34.4789 29.5127 29.554 34.4376 23.4954 34.4376Z" fill="#1A1A1A"/>
<path d="M23.5367 9.8957C22.8896 9.8957 22.3571 9.36328 22.3571 8.71611V4.24101C22.3571 3.59385 22.8896 3.06142 23.5367 3.06142C24.1839 3.06142 24.7163 3.59385 24.7163 4.24101V8.71611C24.7163 9.36328 24.1885 9.8957 23.5367 9.8957ZM23.5367 37.2282C22.8896 37.2282 22.3571 37.7606 22.3571 38.4078V42.8829C22.3571 43.5301 22.8896 44.0625 23.5367 44.0625C24.1839 44.0625 24.7163 43.5301 24.7163 42.8829V38.4078C24.7163 37.7606 24.1885 37.2282 23.5367 37.2282ZM37.0538 23.4128C37.0538 24.06 37.5862 24.5924 38.2334 24.5924H42.7085C43.3557 24.5924 43.8881 24.06 43.8881 23.4128C43.8881 22.7656 43.3557 22.2332 42.7085 22.2332H38.2334C37.5862 22.2332 37.0538 22.761 37.0538 23.4128ZM10.0059 23.4128C10.0059 24.06 9.47344 24.5924 8.82627 24.5924H4.35118C3.70401 24.5924 3.17159 24.06 3.17159 23.4128C3.17159 22.7656 3.70401 22.2332 4.35118 22.2332H8.82627C9.47803 22.2332 10.0059 22.761 10.0059 23.4128ZM33.1983 13.9026C32.7394 13.4437 32.7394 12.6955 33.1983 12.2365L35.7962 9.63867C36.2552 9.17969 37.0033 9.17969 37.4623 9.63867C37.9213 10.0977 37.9213 10.8458 37.4623 11.3048L34.8645 13.9026C34.4101 14.3616 33.6573 14.3616 33.1983 13.9026ZM13.8613 13.9026C14.3203 13.4437 14.3203 12.6955 13.8613 12.2365L11.2635 9.63867C10.8045 9.17969 10.0564 9.17969 9.59737 9.63867C9.13838 10.0977 9.13838 10.8458 9.59737 11.3048L12.1952 13.9026C12.6542 14.3616 13.4023 14.3616 13.8613 13.9026Z" fill="#1A1A1A"/>
<path d="M33.1983 32.9367C32.7393 33.3957 32.7393 34.1439 33.1983 34.6028L35.7962 37.2007C36.2552 37.6597 37.0033 37.6597 37.4623 37.2007C37.9213 36.7417 37.9213 35.9936 37.4623 35.5346L34.8644 32.9367C34.4101 32.4777 33.6573 32.4777 33.1983 32.9367Z" fill="#1A1A1A"/>
<path d="M13.8613 32.9367C14.3203 33.3957 14.3203 34.1439 13.8613 34.6028L11.2635 37.2007C10.8045 37.6597 10.0563 37.6597 9.59735 37.2007C9.13837 36.7417 9.13837 35.9936 9.59735 35.5346L12.1952 32.9367C12.6542 32.4777 13.4023 32.4777 13.8613 32.9367Z" fill="#1A1A1A"/>
</svg>
