<svg width="47" height="47" viewBox="0 0 47 47" fill="none" xmlns="http://www.w3.org/2000/svg">
<path d="M31.2431 10.0472H29.6825C29.2189 10.0472 28.838 9.66621 28.838 9.20264C28.838 8.73907 29.2189 8.35811 29.6825 8.35811H31.2431C31.7066 8.35811 32.0876 8.73907 32.0876 9.20264C32.083 9.6708 31.7066 10.0472 31.2431 10.0472ZM31.2431 13.2096H29.6825C29.2189 13.2096 28.838 12.8286 28.838 12.365C28.838 11.9015 29.2189 11.5205 29.6825 11.5205H31.2431C31.7066 11.5205 32.0876 11.9015 32.0876 12.365C32.083 12.8286 31.7066 13.2096 31.2431 13.2096ZM31.2431 16.372H29.6825C29.2189 16.372 28.838 15.991 28.838 15.5274C28.838 15.0639 29.2189 14.6829 29.6825 14.6829H31.2431C31.7066 14.6829 32.0876 15.0639 32.0876 15.5274C32.083 15.991 31.7066 16.372 31.2431 16.372Z" fill="#1A1A1A"/>
<path d="M27.36 25.2992V6.98574C27.36 4.77802 25.5608 2.97881 23.3531 2.97881C21.1454 2.97881 19.3462 4.77802 19.3462 6.98574V25.2992C16.7529 26.7221 14.9904 29.4806 14.9904 32.6384C14.9904 37.2512 18.7449 41.0057 23.3577 41.0057C27.9705 41.0057 31.7158 37.2512 31.7158 32.6384C31.7158 29.476 29.9533 26.7221 27.36 25.2992ZM23.3531 39.2523C19.7088 39.2523 16.7437 36.2873 16.7437 32.643C16.7437 30.5041 17.7673 28.5993 19.3462 27.3876C19.874 26.9837 20.4661 26.6578 21.0995 26.4237V6.98574C21.0995 5.74189 22.1093 4.73213 23.3531 4.73213C24.597 4.73213 25.6067 5.74189 25.6067 6.98574V26.4237C26.2447 26.6532 26.8322 26.9837 27.36 27.3876C28.939 28.5947 29.9625 30.4995 29.9625 32.643C29.9625 36.2827 26.9974 39.2523 23.3531 39.2523Z" fill="#1A1A1A"/>
<path d="M19.8144 32.8266C19.8144 33.7675 20.1882 34.67 20.8535 35.3353C21.5189 36.0007 22.4213 36.3745 23.3623 36.3745C24.3033 36.3745 25.2057 36.0007 25.8711 35.3353C26.5365 34.67 26.9103 33.7675 26.9103 32.8266C26.9103 31.8856 26.5365 30.9831 25.8711 30.3178C25.2057 29.6524 24.3033 29.2786 23.3623 29.2786C22.4213 29.2786 21.5189 29.6524 20.8535 30.3178C20.1882 30.9831 19.8144 31.8856 19.8144 32.8266Z" fill="#B30000"/>
<path d="M27.7869 32.8541C27.383 32.7761 26.9929 33.0147 26.8643 33.3911C26.5935 35.0802 25.1294 36.3653 23.3623 36.3653C21.4024 36.3653 19.8143 34.7772 19.8143 32.8174C19.8143 30.8575 21.4024 29.2694 23.3623 29.2694C23.6469 29.2694 23.9223 29.3062 24.1885 29.3658C24.1931 29.3337 24.1976 29.3016 24.1976 29.2648V9.02363C24.1976 8.57842 23.835 8.21582 23.3898 8.21582C22.9446 8.21582 22.582 8.57842 22.582 9.02363V27.7594C22.5407 27.7594 22.504 27.764 22.4627 27.7731C20.3789 28.1587 18.7679 29.756 18.364 31.8397C17.8269 34.6166 19.6445 37.3108 22.4214 37.8524C22.7518 37.9167 23.0777 37.9488 23.399 37.9488C25.8041 37.9488 27.9567 36.246 28.4295 33.7996C28.5121 33.3682 28.2229 32.9413 27.7869 32.8541ZM41.9695 44.0212C39.4681 44.0212 38.1554 43.1583 36.9941 42.3964C35.9017 41.6804 34.8736 41.0011 32.7807 41.0011C30.6877 41.0011 29.6596 41.6804 28.5672 42.3964C27.4105 43.1583 26.0933 44.0212 23.5918 44.0212C21.0903 44.0212 19.7776 43.1583 18.6164 42.3964C17.524 41.6804 16.4959 41.0011 14.4029 41.0011C12.3099 41.0011 11.2818 41.6804 10.1894 42.3964C9.0328 43.1583 7.71552 44.0212 5.21405 44.0212C4.80555 44.0212 4.47509 43.6586 4.47509 43.2134C4.47509 42.7682 4.80555 42.4056 5.21405 42.4056C7.30702 42.4056 8.33514 41.7263 9.42753 41.0103C10.5842 40.2483 11.9015 39.3854 14.4029 39.3854C16.9044 39.3854 18.2171 40.2483 19.3783 41.0103C20.4707 41.7263 21.4988 42.4056 23.5918 42.4056C25.6848 42.4056 26.7129 41.7263 27.8053 41.0103C28.9619 40.2483 30.2792 39.3854 32.7807 39.3854C35.2821 39.3854 36.5948 40.2483 37.756 41.0103C38.8484 41.7263 39.8766 42.4056 41.9695 42.4056C42.378 42.4056 42.7085 42.7682 42.7085 43.2134C42.7085 43.6586 42.378 44.0212 41.9695 44.0212ZM42.4193 37.4026C40.3264 37.4026 39.2982 36.7233 38.2059 36.0073C37.0492 35.2454 35.7319 34.3825 33.2305 34.3825C32.6521 34.3825 32.1381 34.4284 31.6745 34.511C31.5414 35.1353 31.3486 35.7365 31.1008 36.3057C31.6837 36.1175 32.363 36.0027 33.2259 36.0027C35.3188 36.0027 36.347 36.682 37.4393 37.398C38.596 38.16 39.9133 39.0229 42.4147 39.0229C42.8232 39.0229 43.1537 38.6603 43.1537 38.215C43.1583 37.7652 42.8278 37.4026 42.4193 37.4026ZM14.8573 34.4468C14.5177 34.4101 14.1597 34.3825 13.7649 34.3825C11.2635 34.3825 9.95077 35.2454 8.78954 36.0073C7.69716 36.7233 6.66903 37.4026 4.57606 37.4026C4.16757 37.4026 3.8371 37.7652 3.8371 38.2104C3.8371 38.6557 4.16757 39.0183 4.57606 39.0183C7.07753 39.0183 8.39022 38.1554 9.55145 37.3935C10.6438 36.6774 11.672 35.9981 13.7649 35.9981C14.3891 35.9981 14.9216 36.0578 15.3851 36.1634C15.1602 35.6218 14.9812 35.0435 14.8573 34.4468Z" fill="#1A1A1A"/>
</svg>
