<svg width="41" height="41" viewBox="0 0 41 41" fill="none" xmlns="http://www.w3.org/2000/svg">
<path d="M13.6013 35.3345C7.87167 35.3345 3.21112 30.6739 3.21112 24.9443C3.21112 19.6111 11.4111 9.1249 12.348 7.94775C12.5803 7.65546 12.9286 7.48329 13.301 7.47929C13.6773 7.47529 14.0257 7.63544 14.2659 7.91972C14.326 7.99179 15.7754 9.71347 17.5571 12.1318C17.9615 12.6844 17.8454 13.4611 17.2929 13.8655C16.7403 14.2699 15.9636 14.1538 15.5592 13.6013C14.7063 12.4401 13.9216 11.4392 13.345 10.7144C10.5743 14.398 5.68954 21.5851 5.68954 24.9443C5.68954 29.3046 9.237 32.856 13.6013 32.856C17.9655 32.856 21.513 29.3046 21.513 24.9443C21.513 24.2597 22.0695 23.7031 22.7542 23.7031C23.4389 23.7031 23.9954 24.2597 23.9954 24.9443C23.9914 30.6739 19.3308 35.3345 13.6013 35.3345Z" fill="#1A1A1A"/>
<path d="M14.5622 18.7703C13.4451 21.1606 12.6884 23.4028 12.6884 25.1125C12.6884 31.7029 18.0296 37.0441 24.62 37.0441C31.2105 37.0441 36.5517 31.7029 36.5517 25.1125C36.5517 24.6 36.4756 24.0355 36.3315 23.4349C23.2307 24.7922 24.9243 15.6313 14.5622 18.7703Z" fill="#21C5DB"/>
<path d="M13.357 22.7262C11.8275 32.3315 18.2818 37.0481 24.8603 37.0481C28.5759 37.0481 30.6619 36.5637 32.852 33.9011C22.3818 34.7299 15.6873 29.9292 13.357 22.7262Z" fill="#006299"/>
<path d="M24.62 38.2813C17.3569 38.2813 11.4512 32.3716 11.4512 25.1125C11.4512 18.1697 22.7982 3.79571 23.2827 3.18711C23.5149 2.89483 23.8633 2.72266 24.2356 2.71866C24.608 2.71465 24.9604 2.87481 25.2006 3.15909C25.2807 3.25117 27.1625 5.48936 29.4768 8.62842C29.8812 9.18096 29.765 9.95772 29.2125 10.3621C28.66 10.7665 27.8832 10.6504 27.4788 10.0979C26.2056 8.36817 25.0524 6.90274 24.2797 5.9458C20.7002 10.6544 13.9296 20.512 13.9296 25.1125C13.9296 31.0063 18.7263 35.8029 24.62 35.8029C30.5138 35.8029 35.3105 31.0063 35.3105 25.1125C35.3105 23.9233 34.7819 21.5931 32.2515 17.2568C31.9071 16.6643 32.1073 15.9075 32.6999 15.5632C33.2925 15.2189 34.0492 15.419 34.3936 16.0116C36.6798 19.9314 37.7889 22.9063 37.7889 25.1165C37.7889 32.3756 31.8791 38.2813 24.62 38.2813Z" fill="#1A1A1A"/>
</svg>
